<svg
    xmlns="http://www.w3.org/2000/svg"
    viewBox="0 0 407.364 230.4" 
    class="fill-current m-h-full"
>
    <g>
        <path d="M46.08 23.194l15.36-7.68L53.76.154 38.4 7.834zm-30.72-.154l15.36-7.68L23.04 0 7.68 7.68zm38.4 7.68l7.68 7.68-7.68 7.68L76.8 69.12v38.4l7.68-7.68 7.68 7.68L38.4 153.6 0 115.2V69.12zM30.797 61.44v49.92l15.283 19.2V76.8z" />
        <path d="M76.75 49.92l34.406-19.046L122.83 46.08v7.68l26.88-22.886L176.59 57.6l-23.04 23.04-19.2-19.2-11.52 11.52-.077 49.843 7.757 7.603 3.84-3.686 7.68 7.68-19.277 19.046-30.643-30.643V61.44l-3.84-7.68-7.68 3.84z" />
        <path d="M199.498 30.72l15.36 15.437 30.72-15.36 17.127 14.745 36.633-14.745 15.36 15.36v76.8l15.36 15.36-15.36 15.36-30.72-30.72v-76.8l-15.36 7.68v69.12l15.36 15.36-15.897 15.82-30.106-31.18.154-76.34-15.59 7.22v69.12l15.436 15.36-15.437 15.36-30.72-30.72v-69.12l-7.68-7.757-11.52 3.84-3.84-7.68z" />
        <path d="M311.364 49.766L345.77 30.72l11.674 15.206-.077 76.724 7.757 7.603 11.443-7.22v11.444l-19.2 18.816-30.643-30.643V61.286l-3.84-7.68-7.68 3.84zm49.92.538l34.406-19.046 11.674 15.206V134.4q0 19.2-5.76 30.72t-17.28 19.2q-11.52 7.68-23.04 5.76t-17.28 0q-5.76 1.92-7.68 7.68t0 13.44q1.92 7.68 11.52 5.76t23.04-7.68q13.44-5.76 17.28-13.44l-7.68 15.36q-7.68 7.68-19.2 13.44t-24.96 5.76q-13.44 0-21.12-11.52-7.68-11.52 0-26.88t21.12-19.2q13.44-3.84 23.04-1.92t13.44 0q3.84-1.92 3.84-36.48V61.824l-3.84-7.68-7.68 3.84z" />
    </g>
</svg>